<svg width="72" height="72" viewBox="0 0 72 72" fill="none" xmlns="http://www.w3.org/2000/svg">
<circle cx="36" cy="36" r="35.5" fill="white" stroke="#E3E3E3"/>
<path d="M55.36 36.4585C55.36 35.0285 55.2317 33.6535 54.9933 32.3335H36V40.1435H46.8533C46.3767 42.6552 44.9467 44.7818 42.8017 46.2118V51.2902H49.3467C53.16 47.7702 55.36 42.6002 55.36 36.4585Z" fill="#4285F4"/>
<path d="M36 56.1668C41.445 56.1668 46.01 54.3701 49.3467 51.2901L42.8017 46.2118C41.005 47.4218 38.7134 48.1551 36 48.1551C30.7567 48.1551 26.3017 44.6168 24.7067 39.8501H17.9967V45.0568C21.315 51.6384 28.1167 56.1668 36 56.1668Z" fill="#34A853"/>
<path d="M24.7067 39.8314C24.3034 38.6214 24.065 37.3381 24.065 35.9998C24.065 34.6614 24.3034 33.3781 24.7067 32.1681V26.9614H17.9967C16.6217 29.6748 15.8334 32.7364 15.8334 35.9998C15.8334 39.2631 16.6217 42.3248 17.9967 45.0381L23.2217 40.9681L24.7067 39.8314Z" fill="#FBBC05"/>
<path d="M36 23.8635C38.97 23.8635 41.61 24.8902 43.7184 26.8702L49.4934 21.0952C45.9917 17.8318 41.445 15.8335 36 15.8335C28.1167 15.8335 21.315 20.3618 17.9967 26.9618L24.7067 32.1685C26.3017 27.4018 30.7567 23.8635 36 23.8635Z" fill="#EA4335"/>
</svg>
